<svg xmlns="http://www.w3.org/2000/svg" width="190" height="190" viewBox="0 0 190 190">
  <g id="Group_7" data-name="Group 7" transform="translate(-203 -698)" opacity="0.5">
    <circle id="Ellipse_1" data-name="Ellipse 1" cx="7.5" cy="7.5" r="7.5" transform="translate(203 698)" fill="#fff"/>
    <circle id="Ellipse_1-2" data-name="Ellipse 1" cx="7.5" cy="7.5" r="7.5" transform="translate(238 698)" fill="#fff"/>
    <circle id="Ellipse_1-3" data-name="Ellipse 1" cx="7.5" cy="7.5" r="7.5" transform="translate(273 698)" fill="#fff"/>
    <circle id="Ellipse_1-4" data-name="Ellipse 1" cx="7.5" cy="7.5" r="7.5" transform="translate(308 698)" fill="#fff"/>
    <circle id="Ellipse_1-5" data-name="Ellipse 1" cx="7.5" cy="7.5" r="7.5" transform="translate(343 698)" fill="#fff"/>
    <circle id="Ellipse_1-6" data-name="Ellipse 1" cx="7.5" cy="7.5" r="7.5" transform="translate(378 698)" fill="#fff"/>
    <circle id="Ellipse_1-7" data-name="Ellipse 1" cx="7.5" cy="7.5" r="7.5" transform="translate(203 733)" fill="#fff"/>
    <circle id="Ellipse_1-8" data-name="Ellipse 1" cx="7.5" cy="7.5" r="7.5" transform="translate(238 733)" fill="#fff"/>
    <circle id="Ellipse_1-9" data-name="Ellipse 1" cx="7.5" cy="7.5" r="7.5" transform="translate(273 733)" fill="#fff"/>
    <circle id="Ellipse_1-10" data-name="Ellipse 1" cx="7.5" cy="7.5" r="7.5" transform="translate(308 733)" fill="#fff"/>
    <circle id="Ellipse_1-11" data-name="Ellipse 1" cx="7.5" cy="7.5" r="7.5" transform="translate(343 733)" fill="#fff"/>
    <circle id="Ellipse_1-12" data-name="Ellipse 1" cx="7.5" cy="7.5" r="7.5" transform="translate(378 733)" fill="#fff"/>
    <circle id="Ellipse_1-13" data-name="Ellipse 1" cx="7.5" cy="7.5" r="7.5" transform="translate(203 768)" fill="#fff"/>
    <circle id="Ellipse_1-14" data-name="Ellipse 1" cx="7.5" cy="7.5" r="7.5" transform="translate(238 768)" fill="#fff"/>
    <circle id="Ellipse_1-15" data-name="Ellipse 1" cx="7.5" cy="7.5" r="7.5" transform="translate(273 768)" fill="#fff"/>
    <circle id="Ellipse_1-16" data-name="Ellipse 1" cx="7.5" cy="7.5" r="7.5" transform="translate(308 768)" fill="#fff"/>
    <circle id="Ellipse_1-17" data-name="Ellipse 1" cx="7.5" cy="7.5" r="7.5" transform="translate(343 768)" fill="#fff"/>
    <circle id="Ellipse_1-18" data-name="Ellipse 1" cx="7.5" cy="7.5" r="7.5" transform="translate(378 768)" fill="#fff"/>
    <circle id="Ellipse_1-19" data-name="Ellipse 1" cx="7.5" cy="7.5" r="7.5" transform="translate(203 803)" fill="#fff"/>
    <circle id="Ellipse_1-20" data-name="Ellipse 1" cx="7.5" cy="7.5" r="7.5" transform="translate(238 803)" fill="#fff"/>
    <circle id="Ellipse_1-21" data-name="Ellipse 1" cx="7.5" cy="7.5" r="7.5" transform="translate(273 803)" fill="#fff"/>
    <circle id="Ellipse_1-22" data-name="Ellipse 1" cx="7.5" cy="7.5" r="7.5" transform="translate(308 803)" fill="#fff"/>
    <circle id="Ellipse_1-23" data-name="Ellipse 1" cx="7.5" cy="7.5" r="7.5" transform="translate(343 803)" fill="#fff"/>
    <circle id="Ellipse_1-24" data-name="Ellipse 1" cx="7.5" cy="7.5" r="7.5" transform="translate(378 803)" fill="#fff"/>
    <circle id="Ellipse_1-25" data-name="Ellipse 1" cx="7.5" cy="7.5" r="7.5" transform="translate(203 838)" fill="#fff"/>
    <circle id="Ellipse_1-26" data-name="Ellipse 1" cx="7.5" cy="7.5" r="7.5" transform="translate(238 838)" fill="#fff"/>
    <circle id="Ellipse_1-27" data-name="Ellipse 1" cx="7.5" cy="7.5" r="7.5" transform="translate(273 838)" fill="#fff"/>
    <circle id="Ellipse_1-28" data-name="Ellipse 1" cx="7.5" cy="7.5" r="7.5" transform="translate(308 838)" fill="#fff"/>
    <circle id="Ellipse_1-29" data-name="Ellipse 1" cx="7.5" cy="7.5" r="7.5" transform="translate(343 838)" fill="#fff"/>
    <circle id="Ellipse_1-30" data-name="Ellipse 1" cx="7.5" cy="7.5" r="7.5" transform="translate(378 838)" fill="#fff"/>
    <circle id="Ellipse_1-31" data-name="Ellipse 1" cx="7.5" cy="7.5" r="7.5" transform="translate(203 873)" fill="#fff"/>
    <circle id="Ellipse_1-32" data-name="Ellipse 1" cx="7.5" cy="7.5" r="7.5" transform="translate(238 873)" fill="#fff"/>
    <circle id="Ellipse_1-33" data-name="Ellipse 1" cx="7.5" cy="7.5" r="7.5" transform="translate(273 873)" fill="#fff"/>
    <circle id="Ellipse_1-34" data-name="Ellipse 1" cx="7.5" cy="7.5" r="7.5" transform="translate(308 873)" fill="#fff"/>
    <circle id="Ellipse_1-35" data-name="Ellipse 1" cx="7.5" cy="7.5" r="7.5" transform="translate(343 873)" fill="#fff"/>
    <circle id="Ellipse_1-36" data-name="Ellipse 1" cx="7.5" cy="7.5" r="7.5" transform="translate(378 873)" fill="#fff"/>
  </g>
</svg>
